<?xml version="1.0" encoding="UTF-8" standalone="no"?>
<!-- Created with Inkscape (http://www.inkscape.org/) -->

<svg
   width="500"
   height="359.88712"
   id="svg6115"
   version="1.1"
   inkscape:version="1.2.1 (9c6d41e410, 2022-07-14)"
   viewBox="0 0 500 359.88712"
   sodipodi:docname="logo_cat.ink.svg"
   xml:space="preserve"
   xmlns:inkscape="http://www.inkscape.org/namespaces/inkscape"
   xmlns:sodipodi="http://sodipodi.sourceforge.net/DTD/sodipodi-0.dtd"
   xmlns="http://www.w3.org/2000/svg"
   xmlns:svg="http://www.w3.org/2000/svg"
   xmlns:rdf="http://www.w3.org/1999/02/22-rdf-syntax-ns#"
   xmlns:cc="http://creativecommons.org/ns#"
   xmlns:dc="http://purl.org/dc/elements/1.1/"><defs
     id="defs6117"><clipPath
       clipPathUnits="userSpaceOnUse"
       id="clipPath2576"><path
         style="clip-rule:evenodd;display:inline;fill:#000000;fill-rule:evenodd;stroke:none;stroke-width:0;stroke-dasharray:none"
         d="m 641.48261,208.59793 c 3.3853,-5.64193 5.8927,-11.65998 7.648,-17.92878 l 1.5046,-5.89268 c 6.2688,-28.46039 0,-61.18356 -4.3882,-88.39017 -5.5167,-33.85156 -5.6419,-93.15445 -38.8666,-140.79739 -66.0732,26.8305 -96.2888,61.30893 -128.51059,104.43831 l -47.14139,5.01504 C 418.56393,39.34017 397.24992,18.77848 371.54782,4.98711 c -21.06319,56.79537 -28.5857,135.03008 -26.0782,194.58374 0.1254,2.38215 0.3761,4.7643 0.7522,7.02106 l 0.8777,3.88666 c 1.3791,5.14042 3.6359,10.03009 6.5195,14.41826 l 2.2568,3.00902 c 3.2598,4.13742 7.1465,7.89869 11.66,11.28385 l 1.7553,1.37913 c 52.5326,37.23671 178.28479,28.58576 239.09229,-2.88365 l 5.7672,-3.1344 c 7.7734,-4.51353 14.2929,-9.52858 19.0572,-14.91975 1.0031,-1.12839 2.006,-2.25677 3.009,-3.51053 z"
         id="path2578"
         sodipodi:nodetypes="cccccccccccccccccccc"
         inkscape:label="face-mask" /></clipPath></defs><sodipodi:namedview
     id="base"
     pagecolor="#777777"
     bordercolor="#666666"
     borderopacity="1.0"
     inkscape:pageopacity="0"
     inkscape:pageshadow="2"
     inkscape:zoom="2"
     inkscape:cx="212.75"
     inkscape:cy="193.5"
     inkscape:current-layer="layer1"
     inkscape:document-units="px"
     showgrid="true"
     inkscape:window-width="1866"
     inkscape:window-height="1011"
     inkscape:window-x="54"
     inkscape:window-y="32"
     inkscape:window-maximized="1"
     showguides="false"
     inkscape:snap-nodes="false"
     inkscape:showpageshadow="0"
     inkscape:pagecheckerboard="0"
     inkscape:deskcolor="#777777"><inkscape:grid
       type="xygrid"
       id="grid4308"
       originx="-255.07413"
       originy="-1360.2535" /></sodipodi:namedview><metadata
     id="metadata6120"><rdf:RDF><cc:Work
         rdf:about=""><dc:format>image/svg+xml</dc:format><dc:type
           rdf:resource="http://purl.org/dc/dcmitype/StillImage" /></cc:Work></rdf:RDF></metadata><g
     id="layer1"
     inkscape:label="meow"
     inkscape:groupmode="layer"
     transform="translate(-255.07413,439.74653)"><path
       id="path5335-4-2-3"
       d="m 309.48737,-152.88595 11.78536,-25.82749 7.14644,3.38516 c -3.51053,-72.09128 8.52558,-146.81544 35.35607,-213.51554 34.22772,17.30191 62.06122,34.85456 85.00502,66.32397 l 21.0632,-2.25677 c 40.6219,-51.65496 91.6499,-92.02608 153.335,-114.96991 55.1655,62.56269 54.9148,134.02708 52.658,158.22468 9.0271,28.08424 13.2899,48.2698 13.0391,72.46739 l 29.5888,-7.27182 2.3822,29.33802 34.2276,-5.39117 -24.0722,65.82246 h -39.3681 l -7.8987,25.57673 -57.7984,-3.38515 c -31.5948,17.678033 -97.9188,27.958883 -158.0993,23.445343 -57.5477,-4.38817 -79.73925,-5.01505 -105.94286,-22.567713 l -64.31796,13.791383 -14.04213,-21.188573 -25.82748,2.75827 -2.6329,-50.4012 z"
       inkscape:connector-curvature="0"
       style="clip-rule:evenodd;display:inline;fill:#ffffff;fill-rule:evenodd;stroke-width:1.25376"
       inkscape:label="bg-white" /><path
       style="clip-rule:evenodd;display:inline;fill:#000000;fill-rule:evenodd;stroke-width:1.25376"
       d="m 671.94986,-192.63019 35.2306,-7.77332 2.3822,27.95888 26.4544,-4.13741 -13.7914,37.61284 h -62.4374 c -1.3791,1.88064 -2.7582,3.76128 -4.2628,5.51655 l 25.3261,-0.50151 -6.2689,20.06018 -54.4132,0.62688 c -40.8726,19.433303 -81.4945,25.075233 -146.1886,24.448353 -44.3832,-0.37613 -84.1274,-2.88365 -109.20261,-24.322973 l -66.1986,14.418263 -10.03009,-16.298903 66.07322,-8.90171 c -0.75226,-1.00301 -1.37914,-1.88064 -2.13139,-2.88365 l -87.76329,5.64193 -1.25377,-23.82147 81.87062,4.51354 c -0.62688,-1.50451 -1.12839,-3.00902 -1.75527,-4.51354 l -24.94985,-5.01504 7.52257,-18.80642 12.66299,4.51354 c -2.50752,-15.54664 -2.6329,-34.47844 -0.12538,-57.17152 0.62688,-37.36207 9.90472,-99.42326 30.59178,-151.95586 32.09627,16.8004 52.90867,33.47543 73.59577,64.44333 l 33.7262,-3.51053 c 37.8636,-49.64894 82.4975,-86.6349 141.0481,-109.20261 34.3531,46.13842 41.8757,69.95988 45.637,146.43932 9.1525,33.22467 10.0301,59.80441 8.651,82.62286 z"
       id="path3507-6"
       inkscape:label="bg-black" /><path
       style="clip-rule:evenodd;display:inline;fill:#ffffff;fill-rule:evenodd;stroke-width:1.25376"
       d="m 645.87146,-152.38446 c 3.3853,-5.64193 5.8927,-11.65998 7.648,-17.92878 l 1.5046,-5.89268 c 6.2688,-28.46039 0,-61.18356 -4.3882,-88.39016 -5.5167,-33.85156 -5.6419,-93.15446 -38.8666,-140.79739 -66.0732,26.83049 -96.2888,61.30892 -128.5106,104.43831 l -47.1414,5.01504 c -13.1645,-25.7021 -34.4785,-46.26379 -60.18057,-60.05516 -21.06319,56.79538 -28.5857,135.03008 -26.0782,194.58374 0.1254,2.38215 0.3761,4.7643 0.7522,7.02106 l 0.8777,3.88666 c 1.3791,5.14042 3.6359,10.03009 6.5195,14.41826 l 2.2568,3.00902 c 3.2598,4.13742 7.1465,7.89869 11.66,11.28385 l 1.7553,1.37913 c 52.53257,37.236713 178.28477,28.585763 239.09227,-2.88365 l 5.7672,-3.1344 c 7.7734,-4.51353 14.2929,-9.52858 19.0572,-14.91975 1.0031,-1.12839 2.006,-2.25677 3.009,-3.51053 z"
       id="path3521-2-9-0"
       sodipodi:nodetypes="cccccccccccccccccccc"
       inkscape:label="face" /><path
       style="clip-rule:evenodd;display:inline;fill-rule:evenodd;stroke-width:1.25376"
       d="m 487.52146,-124.8017 c 8.9017,-0.75226 8.651,12.53761 0.2508,17.05115 l -3.7613,7.64795 -3.8867,-6.26881 c -5.2658,-0.5015 -12.0361,-3.76128 -20.1855,-11.40923 -6.645,5.01505 -12.0361,7.27182 -16.1736,7.8987 l -2.3821,4.63892 -3.2598,-5.01505 c -7.1464,-2.38215 -6.6449,-12.03611 1.5045,-12.28686 -6.2688,1.62989 -7.7733,19.80943 20.6871,0.62688 25.8275,22.567713 37.4875,2.13139 27.2066,-2.88365 z"
       id="path5337-2-0-1"
       inkscape:label="mouth" /><path
       style="clip-rule:evenodd;display:inline;fill:#000000;fill-rule:evenodd;stroke-width:1.25376"
       d="m 485.64086,-151.5068 c -11.0331,-25.07523 89.6439,-63.5657 107.4473,-72.71816 -26.7051,16.2989 -18.3625,34.32347 -40.6476,44.99952 -42.1264,14.41826 -64.2922,13.92726 -66.7997,27.71864 z"
       id="path3503-2"
       inkscape:label="eye-left" /><path
       style="clip-rule:evenodd;display:inline;fill:#000000;fill-rule:evenodd;stroke-width:1.25376"
       d="m 439.00096,-149.25003 c -0.1254,-11.0331 -0.6269,-9.02708 -31.0933,-15.67202 -15.5467,-3.38516 -17.5527,-25.82748 -32.59782,-33.47543 9.52859,3.76129 77.35702,28.83651 63.69112,49.14745 z"
       id="path5394-5-7"
       inkscape:label="eye-right" /><g
       id="moustache-3"
       inkscape:label="moustache-white"
       style="display:inline;fill:#ffffff"
       transform="translate(4.37925,-361.00668)"><path
         style="display:inline;fill:#ffffff;stroke:none;stroke-width:4;stroke-linecap:round;stroke-linejoin:round"
         d="m 527.02983,234.86699 135.671,4.69316 2.4856,-5.02128 z"
         id="path3741-72-2-7-29"
         sodipodi:nodetypes="cccc"
         inkscape:label="left-3" /><path
         style="display:inline;fill:#ffffff;stroke:none;stroke-width:4;stroke-linecap:round;stroke-linejoin:round"
         d="m 504.78813,228.2472 204.2898,-18.80296 4.9916,-11.2776 z"
         id="path3741-72-7-1-1"
         sodipodi:nodetypes="cccc"
         inkscape:label="left-2" /><path
         style="display:inline;fill:#ffffff;stroke:none;stroke-width:4;stroke-linecap:round;stroke-linejoin:round"
         d="m 530.86103,214.34961 161.7806,-32.42304 -0.039,-7.53997 z"
         id="path3741-72-9-6"
         sodipodi:nodetypes="cccc"
         inkscape:label="left-1" /><path
         style="display:inline;fill:#ffffff;stroke:none;stroke-width:4;stroke-linecap:round;stroke-linejoin:round"
         d="m 400.34853,234.57036 -103.9037,20.02705 -2.49279,-4.99587 z"
         id="path3741-1-0-3"
         sodipodi:nodetypes="cccc"
         inkscape:label="right-3" /><path
         style="fill:#ffffff;stroke:none;stroke-width:4;stroke-linecap:round;stroke-linejoin:round"
         d="m 405.38823,225.69542 -140.14124,6.20947 -0.0127,-8.74591 z"
         id="path3741-7-9-7"
         sodipodi:nodetypes="cccc"
         inkscape:label="right-2" /><path
         style="display:inline;fill:#ffffff;stroke:none;stroke-width:4;stroke-linecap:round;stroke-linejoin:round"
         d="m 398.76133,220.58749 -75.85186,-14.87684 1.24471,-5.01893 z"
         id="path3741-4-9"
         sodipodi:nodetypes="cccc"
         inkscape:label="right-1" /></g><g
       id="moustache-0"
       inkscape:label="moustache-black"
       style="display:inline"
       transform="translate(4.37433,-361.00505)"
       clip-path="url(#clipPath2576)"><path
         style="display:inline;fill:#000000;stroke:none;stroke-width:4;stroke-linecap:round;stroke-linejoin:round"
         d="m 527.02983,234.86699 135.671,4.69316 2.4856,-5.02128 z"
         id="path3741-72-2-7-2"
         sodipodi:nodetypes="cccc"
         inkscape:label="left-3" /><path
         style="fill:#000000;stroke:none;stroke-width:4;stroke-linecap:round;stroke-linejoin:round"
         d="m 504.78813,228.2472 204.2898,-18.80296 4.9916,-11.2776 z"
         id="path3741-72-7-1-9"
         sodipodi:nodetypes="cccc"
         inkscape:label="left-2" /><path
         style="display:inline;fill:#000000;stroke:none;stroke-width:4;stroke-linecap:round;stroke-linejoin:round"
         d="m 530.86103,214.34961 161.7806,-32.42304 -0.039,-7.53997 z"
         id="path3741-72-9-7"
         sodipodi:nodetypes="cccc"
         inkscape:label="left-1" /><path
         style="display:inline;fill:#000000;stroke:none;stroke-width:4;stroke-linecap:round;stroke-linejoin:round"
         d="m 400.34853,234.57036 -103.9037,20.02705 -2.49279,-4.99587 z"
         id="path3741-1-0-8"
         sodipodi:nodetypes="cccc"
         inkscape:label="right-3" /><path
         style="display:inline;fill:#000000;stroke:none;stroke-width:4;stroke-linecap:round;stroke-linejoin:round"
         d="m 405.38823,225.69542 -140.14124,6.20947 -0.0127,-8.74591 z"
         id="path3741-7-9-1"
         sodipodi:nodetypes="cccc"
         inkscape:label="right-2" /><path
         style="display:inline;fill:#000000;stroke:none;stroke-width:4;stroke-linecap:round;stroke-linejoin:round"
         d="m 398.76133,220.58749 -75.85186,-14.87684 1.24471,-5.01893 z"
         id="path3741-4-6"
         sodipodi:nodetypes="cccc"
         inkscape:label="right-1" /></g></g></svg>
