<svg xmlns="http://www.w3.org/2000/svg" xml:space="preserve" width="500" height="359.89"><defs><clipPath id="a" clipPathUnits="userSpaceOnUse"><path d="M641.48 208.6a72.9 72.9 0 0 0 7.65-17.93l1.5-5.9c6.27-28.45 0-61.18-4.38-88.38-5.52-33.86-5.64-93.16-38.87-140.8-66.07 26.83-96.29 61.3-128.51 104.44l-47.14 5.01C418.56 39.34 397.25 18.78 371.55 5c-21.07 56.8-28.59 135.03-26.08 194.58.13 2.38.38 4.77.75 7.02l.88 3.89a49.97 49.97 0 0 0 6.52 14.42l2.26 3a62.38 62.38 0 0 0 11.66 11.29l1.75 1.38c52.53 37.24 178.29 28.58 239.1-2.88l5.76-3.14c7.77-4.51 14.3-9.53 19.06-14.92 1-1.13 2-2.26 3-3.5z"/></clipPath></defs><path fill="#fff" d="m54.41 286.86 11.79-25.83 7.15 3.39c-3.52-72.1 8.52-146.82 35.35-213.52 34.23 17.3 62.06 34.86 85 66.33l21.07-2.26C255.39 63.31 306.42 22.94 368.1 0c55.17 62.56 54.92 134.03 52.66 158.22 9.03 28.09 13.3 48.27 13.04 72.47l29.59-7.27 2.38 29.34 34.23-5.4-24.07 65.83h-39.37l-7.9 25.58-57.8-3.39c-31.6 17.68-97.92 27.96-158.1 23.45-57.54-4.4-79.74-5.02-105.94-22.57L42.5 350.05l-14.04-21.19-25.83 2.76L0 281.22z"/><path d="m416.88 247.12 35.23-7.78 2.38 27.96 26.45-4.14-13.79 37.62h-62.44a85.01 85.01 0 0 1-4.26 5.51l25.33-.5-6.27 20.06-54.41.63c-40.88 19.43-81.5 25.07-146.2 24.45-44.38-.38-84.12-2.89-109.2-24.33l-66.2 14.42-10.02-16.3 66.07-8.9-2.13-2.88-87.77 5.64-1.25-23.82 81.87 4.51c-.63-1.5-1.13-3-1.75-4.51l-24.95-5.02 7.52-18.8 12.66 4.51c-2.5-15.55-2.63-34.48-.12-57.17.62-37.36 9.9-99.42 30.59-151.96 32.1 16.8 52.9 33.48 73.6 64.45l33.72-3.51c37.86-49.65 82.5-86.64 141.05-109.2 34.35 46.13 41.87 69.95 45.63 146.43 9.16 33.23 10.03 59.8 8.66 82.63z"/><path fill="#fff" d="M390.8 287.36a72.9 72.9 0 0 0 7.65-17.93l1.5-5.89c6.27-28.46 0-61.18-4.39-88.39-5.51-33.85-5.64-93.15-38.86-140.8-66.08 26.83-96.3 61.31-128.52 104.44l-47.14 5.02c-13.16-25.7-34.48-46.27-60.18-60.06-21.06 56.8-28.58 135.03-26.08 194.58.13 2.39.38 4.77.76 7.03l.87 3.88a49.97 49.97 0 0 0 6.52 14.42l2.26 3.01a62.38 62.38 0 0 0 11.66 11.28l1.76 1.38c52.53 37.24 178.28 28.59 239.09-2.88l5.77-3.14c7.77-4.5 14.29-9.52 19.05-14.91 1-1.13 2-2.26 3.01-3.52z"/><path d="M232.45 314.94c8.9-.75 8.65 12.54.25 17.06l-3.76 7.64-3.89-6.26c-5.27-.5-12.04-3.77-20.19-11.41-6.64 5.01-12.03 7.27-16.17 7.9l-2.38 4.63-3.26-5.01c-7.15-2.38-6.65-12.04 1.5-12.29-6.27 1.63-7.77 19.81 20.7.63 25.82 22.57 37.48 2.13 27.2-2.89zm-1.88-26.7c-11.04-25.08 89.64-63.57 107.44-72.72-26.7 16.3-18.36 34.33-40.64 45-42.13 14.42-64.3 13.93-66.8 27.72zm-46.64 2.26c-.13-11.04-.63-9.03-31.1-15.68-15.54-3.38-17.55-25.82-32.6-33.47 9.53 3.76 77.36 28.84 63.7 49.15z"/><path fill="#fff" d="m276.33 313.6 135.68 4.7 2.48-5.02zm-22.23-6.61 204.28-18.8 5-11.28zm26.07-13.9 161.78-32.42-.04-7.54zm-130.52 20.22-103.9 20.03-2.5-5zm5.05-8.87-140.15 6.2-.01-8.74zm-6.63-5.11L72.2 284.45l1.25-5.02z"/><g clip-path="url(#a)" transform="translate(-250.7 78.74)"><path d="m527.03 234.87 135.67 4.69 2.49-5.02zm-22.24-6.62 204.29-18.8 4.99-11.28zm26.07-13.9 161.78-32.42-.04-7.54zm-130.51 20.22-103.9 20.03-2.5-5zm5.04-8.87-140.14 6.2-.02-8.74zm-6.63-5.11-75.85-14.88 1.24-5.02z"/></g></svg>